<?xml version="1.0" standalone="no"?>
<!DOCTYPE svg PUBLIC "-//W3C//DTD SVG 20010904//EN"
 "http://www.w3.org/TR/2001/REC-SVG-20010904/DTD/svg10.dtd">
<svg version="1.0" xmlns="http://www.w3.org/2000/svg"
 width="1280.000000pt" height="1280.000000pt" viewBox="0 0 1280.000000 1280.000000"
 preserveAspectRatio="xMidYMid meet">
<metadata>
Created by potrace 1.14, written by Peter Selinger 2001-2017
</metadata>
<g transform="translate(0.000000,1280.000000) scale(0.100000,-0.100000)"
fill="#000000" stroke="none">
<path d="M7315 10894 c-80 -76 -389 -374 -575 -554 -37 -36 -152 -146 -255
-245 -103 -99 -213 -205 -245 -235 -31 -30 -157 -152 -280 -270 -501 -482
-466 -446 -464 -482 1 -18 5 -267 9 -553 4 -286 8 -626 10 -755 4 -324 7 -533
6 -546 -1 -7 -70 -9 -218 -7 -709 10 -811 9 -827 -2 -9 -7 -235 -228 -502
-491 -267 -264 -579 -570 -692 -682 -114 -112 -302 -298 -418 -413 l-212 -209
0 -1880 0 -1881 567 6 c311 3 782 7 1046 10 264 3 754 7 1088 10 334 3 791 8
1015 10 224 2 711 7 1082 10 l675 6 723 722 722 722 -2 3890 -3 3889 -275 2
c-151 1 -637 4 -1080 8 l-805 6 -90 -86z"/>
</g>
</svg>
